HIERARCHY
ROOT Hips
{
	OFFSET	0.00	0.00	0.00
	CHANNELS 6 Xposition Yposition Zposition Zrotation Xrotation Yrotation
	JOINT Spine
	{
		OFFSET	 0.00	0.01	 0.00
		CHANNELS 3 Zrotation Xrotation Yrotation
		JOINT Spine1
		{
			OFFSET	 0.00	 2.45913012437421	 0.00
			CHANNELS 3 Zrotation Xrotation Yrotation
            JOINT Neck
            {
                OFFSET	 0.00	 2.48462964506057	 0.00
                CHANNELS 3 Zrotation Xrotation Yrotation
                JOINT Head
                {
                    OFFSET	 0.00	 0.927524780924562	 0.00
                    CHANNELS 3 Zrotation Xrotation Yrotation
                    End Site 
                    {
                        OFFSET	 0.00	 1.14999962169752	 0.00
                    }
                }
            }
			JOINT LeftShoulder
			{
				OFFSET	 0.00	 2.48462964506057	 0.00
				CHANNELS 3 Zrotation Xrotation Yrotation
				JOINT LeftUpArm
				{
					OFFSET	 0.00	 1.24881979654096	 0.00
					CHANNELS 3 Zrotation Xrotation Yrotation
					JOINT LeftForeArm
					{
						OFFSET	 0.00	2.59758046908119	 0.00
						CHANNELS 3 Zrotation Xrotation Yrotation
						JOINT LeftHand
						{
							OFFSET	 0.00	2.45542024364365	 0.00
							CHANNELS 3 Zrotation Xrotation Yrotation
							JOINT LeftHandThumb 
							{
								OFFSET	 0.00	0.00	 0.00
								CHANNELS 3 Zrotation Xrotation Yrotation
								End Site
								{
									OFFSET	 0.00	0.00	1.00000003353624
								}
							}
							JOINT L_Wrist_End 
							{
								OFFSET	 0.00	0.99999967115358	 0.00
								CHANNELS 3 Zrotation Xrotation Yrotation
								End Site 
								{
									OFFSET	 0.00	 0.00	 0.00
								}
							}
						}
					}
				}
			}
			JOINT RightShoulder
			{
				OFFSET	 0.00	 2.48462964506057	 0.00
				CHANNELS 3 Zrotation Xrotation Yrotation
				JOINT RightUpArm
				{
					OFFSET	 0.00	 1.24881979654096	 0.00
					CHANNELS 3 Zrotation Xrotation Yrotation
					JOINT RightForeArm
					{
						OFFSET	 0.00	2.59758046908119	 0.00
						CHANNELS 3 Zrotation Xrotation Yrotation
						JOINT RightHand
						{
							OFFSET	 0.00	2.45542024364365	 0.00
							CHANNELS 3 Zrotation Xrotation Yrotation
							JOINT RightHandThumb 
							{
								OFFSET	 0.00	0.00	 0.00
								CHANNELS 3 Zrotation Xrotation Yrotation
								End Site
								{
									OFFSET	 0.00	0.00	1.00000003353624
								}
							}
							JOINT R_Wrist_End 
							{
								OFFSET	 0.00	0.99999967115358	 0.00
								CHANNELS 3 Zrotation Xrotation Yrotation
								End Site 
								{
									OFFSET	 0.00	 0.00	 0.00
								}
							}
						}
					}
				}
			}
		}
	}
	JOINT LeftUpLeg
	{
		OFFSET	 1.2719394002717	 0.00	 0.00
		CHANNELS 3 Zrotation Xrotation Yrotation
		JOINT LeftLowLeg
		{
			OFFSET	 0.00	-4.3429100912261	 0.00
			CHANNELS 3 Zrotation Xrotation Yrotation
			JOINT LeftFoot
			{
				OFFSET	 0.00	-4.48767017425826	 0.00
				CHANNELS 3 Zrotation Xrotation Yrotation
				JOINT LeftToeBase
                {
                    OFFSET	 0.00	0.00	 1.51507020887566
                    CHANNELS 3 Zrotation Xrotation Yrotation
                    End Site 
                    {
                        OFFSET	 0.00	0.00	 0.75000010571191
                    }
                }
			}
		}
	}
	JOINT RightUpLeg
	{
		OFFSET	 -1.2719393604653	 0.00	 0.00
		CHANNELS 3 Zrotation Xrotation Yrotation
		JOINT RightLowLeg
		{
			OFFSET	 0.00	-4.3429100912261	 0.00
			CHANNELS 3 Zrotation Xrotation Yrotation
			JOINT RightFoot
			{
				OFFSET	 0.00	-4.48767017425826	 0.00
				CHANNELS 3 Zrotation Xrotation Yrotation
				JOINT RightToeBase
                {
                    OFFSET	 0.00	0.00	 1.51507020887566
                    CHANNELS 3 Zrotation Xrotation Yrotation
                    End Site 
                    {
                        OFFSET	 0.00	0.00	 0.749999965609858
                    }
                }   
			}
		}
	}
}
MOTION 
Frames:	15 
Frame Time: 0.02 
  -1.2330799865722657 5.97958984375 6.30177978515625 4.98392 42.4741 -8.93982 -3.279 9.38055 2.30117 -6.76913 46.6915 0.105028 9.77685 35.4896 356.204 105.219 -79.0813 -981.242 -103.2445 16.4098 365.683 -16.9644 42.3591 21.3667 0.0 55.4465 0.0 -27.9669 4.82899 -43.8876 0.0 0.0 0.0 0.0 0.0 0.0 112.3695 11.009 -365.13 32.4161 46.083 -373.122 0.0 53.8362 0.0 44.2046 12.2754 39.2855 0.0 0.0 0.0 0.0 0.0 0.0 -166.877 -78.3682 -154.986 0.0 141.447 0.0 -16.1401 33.272102 2.81835 0.0 -30.7477 0.0 146.044 -73.2223 142.676 0.0 142.07 0.0 71.4795 9.861771 -16.707 0.0 73.6188 0.0 
  -1.2338600158691406 5.981690063476562 6.301439819335937 5.05094 42.674 -9.04435 -3.22632 9.13749 2.33324 -6.82106 46.75 0.122043 9.26531 35.0264 356.73 104.917 -79.0781 -981.684 -103.1983 16.5051 365.589 -16.974 42.2635 21.4934 0.0 55.4886 0.0 -27.7687 4.91856 -44.2393 0.0 0.0 0.0 0.0 0.0 0.0 112.3163 11.0868 -365.06 32.3155 45.9601 -373.213 0.0 53.9592 0.0 44.0449 12.3623 39.3233 0.0 0.0 0.0 0.0 0.0 0.0 -167.097 -78.2214 -155.203 0.0 141.431 0.0 -16.2446 33.2361 2.8807 0.0 -30.596 0.0 146.434 -73.0665 143.096 0.0 142.149 0.0 71.3226 9.98044 -16.331 0.0 72.5859 0.0 
  -1.2351699829101563 5.980570068359375 6.300969848632812 5.13724 42.3061 -9.17207 -3.26029 9.38689 2.40561 -6.93539 46.9378 0.191249 9.12854 34.4382 356.763 104.183 -79.1237 -982.445 -103.1153 16.4951 365.498 -16.9632 42.3438 21.5181 0.0 55.509 0.0 -27.8706 4.98325 -44.4984 0.0 0.0 0.0 0.0 0.0 0.0 112.212 11.0636 -364.764 32.5403 45.8488 -373.505 0.0 54.0685 0.0 43.9535 12.4295 39.2258 0.0 0.0 0.0 0.0 0.0 0.0 -166.784 -78.6562 -154.768 0.0 141.416 0.0 -16.1744 33.2539 2.91512 0.0 -30.7302 0.0 145.829 -73.3226 142.548 0.0 142.165 0.0 71.4724 9.98661 -16.328 0.0 72.7926 0.0 
  -1.2445700073242187 5.989639892578125 6.29718017578125 5.19746 43.4005 -9.42616 -3.20683 8.36542 2.53411 -7.01849 47.0267 0.238924 9.13194 33.9231 356.65 103.866 -79.1568 -982.853 -103.0778 16.457 365.491 -16.5943 42.3645 21.2504 0.0 55.6212 0.0 -28.0798 5.05409 -44.3915 0.0 0.0 0.0 0.0 0.0 0.0 112.3637 11.2389 -364.909 32.0832 45.8534 -373.109 0.0 54.3107 0.0 43.9101 12.4456 39.2066 0.0 0.0 0.0 0.0 0.0 0.0 -169.002 -77.6941 -157.309 0.0 141.372 0.0 -16.0244 33.3826 2.75416 0.0 -30.817501 0.0 146.961 -72.4191 143.509 0.0 141.981 0.0 71.1979 9.806231 -15.928 0.0 73.0134 0.0 
  -1.244219970703125 5.983350219726563 6.295689697265625 5.28974 42.8839 -9.52864 -3.22258 8.73821 2.56551 -7.14283 47.166 0.185451 9.35262 33.5553 356.131 103.151 -79.3323 -983.455 -102.9957 16.3722 365.343 -16.7112 42.3101 21.3351 0.0 55.7358 0.0 -28.1567 5.17132 -44.4372 0.0 0.0 0.0 0.0 0.0 0.0 112.3309 11.2331 -365.028 32.0017 45.9888 -372.976 0.0 54.4029 0.0 44.0674 12.4691 39.1514 0.0 0.0 0.0 0.0 0.0 0.0 -168.497 -78.1827 -156.639 0.0 141.413 0.0 -16.0205 33.376602 2.79086 0.0 -30.888699 0.0 146.363 -72.7485 143.032 0.0 142.124 0.0 71.3472 9.907101 -15.7982 0.0 72.6493 0.0 
  -1.2474099731445312 5.980570068359375 6.293270263671875 5.37115 42.8078 -9.60952 -3.2512 8.78174 2.5736 -7.16564 47.184 0.140213 9.92517 33.3046 355.19 102.659 -79.5037 -983.582 -102.9683 16.3344 365.359 -16.6765 42.2356 21.2513 0.0 55.8461 0.0 -28.1587 5.17425 -44.8524 0.0 0.0 0.0 0.0 0.0 0.0 112.319595 11.2324 -364.961 31.9927 45.9539 -373.142 0.0 54.5658 0.0 43.9392 12.5236 39.2577 0.0 0.0 0.0 0.0 0.0 0.0 -168.608 -78.2076 -156.721 0.0 141.437 0.0 -16.028 33.4256 2.83609 0.0 -30.8465 0.0 146.397 -72.7612 143.061 0.0 142.169 0.0 71.2021 9.8945 -15.669 0.0 72.6003 0.0 
  -1.2495500183105468 5.976110229492187 6.296500244140625 5.30986 42.6666 -9.5296 -3.15368 8.76394 2.52497 -7.22554 47.4218 0.125015 10.5922 33.071 354.141 102.415 -79.645 -983.302 -102.9805 16.357 365.273 -16.6024 42.1065 21.2016 0.0 55.9614 0.0 -28.1037 5.45203 -45.1176 0.0 0.0 0.0 0.0 0.0 0.0 112.3356 11.2344 -364.877 31.9483 45.9888 -373.244 0.0 54.647 0.0 43.951 12.5271 39.2556 0.0 0.0 0.0 0.0 0.0 0.0 -168.08 -78.3644 -156.23 0.0 141.486 0.0 -16.0421 33.290398 2.84499 0.0 -30.9165 0.0 146.434 -72.9362 143.055 0.0 142.256 0.0 71.2321 9.9615 -15.4443 0.0 71.9619 0.0 
  -1.2514099884033203 5.9760302734375 6.297130126953125 5.32529 42.8992 -9.57135 -3.09763 8.52778 2.51915 -7.24296 47.439 0.089945 10.9989 33.0398 353.491 102.784 -79.7303 -982.594 -102.9701 16.4021 365.135 -16.6638 41.928 21.321 0.0 56.0415 0.0 -28.1211 5.49634 -45.2037 0.0 0.0 0.0 0.0 0.0 0.0 112.4099 11.3132 -364.783 31.8813 45.8832 -373.365 0.0 54.7181 0.0 43.9139 12.5988 39.2403 0.0 0.0 0.0 0.0 0.0 0.0 -168.355 -78.1597 -156.566 0.0 141.502 0.0 -16.0204 33.1842 2.83182 0.0 -30.865799 0.0 146.925 -72.7622 143.385 0.0 142.245 0.0 71.1885 9.61669 -15.3882 0.0 72.0639 0.0 
  -1.2511100006103515 5.966489868164063 6.298179931640625 5.4395 42.6691 -9.60796 -3.09113 8.64268 2.45061 -7.24483 47.5145 -0.0376748 11.4396 32.8036 352.638 102.103 -79.9426 -982.83 -102.9156 16.3272 365.085 -16.7662 41.8457 21.3788 0.0 56.1483 0.0 -28.218 5.55012 -45.2019 0.0 0.0 0.0 0.0 0.0 0.0 112.2836 11.2572 -364.616 32.2688 45.8285 -373.743 0.0 54.799 0.0 43.7846 12.588 39.0236 0.0 0.0 0.0 0.0 0.0 0.0 -167.696 -78.3241 -155.773 0.0 141.579 0.0 -16.0552 33.0601 2.87182 0.0 -30.784199 0.0 147.029 -72.9615 143.523 0.0 142.473 0.0 71.3371 9.501249 -15.0348 0.0 71.2982 0.0 
  -1.2526999664306642 5.9672698974609375 6.298489990234375 5.52045 42.6563 -9.745 -3.144 8.69495 2.4408 -7.2294 47.5166 -0.0811556 11.5683 32.6894 352.266 102.121 -80.0527 -982.529 -102.891 16.2362 365.09 -16.7004 41.9032 21.3377 0.0 56.122 0.0 -28.3111 5.62656 -45.2251 0.0 0.0 0.0 0.0 0.0 0.0 112.2974 11.2894 -364.678 32.2325 45.9012 -373.682 0.0 54.7993 0.0 43.7422 12.6309 38.8307 0.0 0.0 0.0 0.0 0.0 0.0 -167.936 -78.3791 -156.002 0.0 141.561 0.0 -16.0522 33.0114 2.85312 0.0 -30.805199 0.0 146.875 -72.9839 143.347 0.0 142.463 0.0 71.2189 9.34794 -14.8113 0.0 71.4081 0.0 
  -1.2551100158691406 5.967100219726563 6.297780151367188 5.56956 42.7684 -9.90911 -3.14804 8.65971 2.47468 -7.23717 47.4232 -0.0767157 11.436 32.6581 352.198 101.86 -80.2095 -982.764 -102.8298 16.2514 365.054 -16.7406 41.8488 21.4602 0.0 56.1133 0.0 -28.3171 5.76944 -45.3429 0.0 0.0 0.0 0.0 0.0 0.0 112.342804 11.3313 -364.814 32.0633 45.8978 -373.584 0.0 54.88 0.0 43.5765 12.6788 38.5777 0.0 0.0 0.0 0.0 0.0 0.0 -168.513 -78.3174 -156.598 0.0 141.583 0.0 -16.1629 32.9122 2.90403 0.0 -30.7286 0.0 146.856 -72.8296 143.339 0.0 142.454 0.0 71.1082 9.40074 -14.5862 0.0 71.2732 0.0 
  -1.253209991455078 5.99968017578125 6.24364013671875 4.98785 44.5085 -7.4232 -2.22489 8.932 0.977645 -5.99078 45.1545 -1.58487 11.1307 32.9695 352.256 99.0532 -80.5901 -985.598 -102.7702 16.133 365.447 -17.0615 41.8891 21.6807 0.0 56.0614 0.0 -28.3697 5.97513 -45.5824 0.0 0.0 0.0 0.0 0.0 0.0 112.0362 11.1491 -365.224 32.4036 45.8908 -373.76 0.0 54.9363 0.0 43.3928 12.6647 38.2498 0.0 0.0 0.0 0.0 0.0 0.0 -165.799 -76.3027 -153.587 0.0 140.867 0.0 -15.5467 32.2142 3.50697 0.0 -33.811 0.0 155.976 -72.434 152.103 0.0 142.328 0.0 70.8741 9.23052 -14.3502 0.0 71.6208 0.0 
  -1.2547599792480468 5.996610107421875 6.242880249023438 5.09957 44.5672 -7.56484 -2.28483 8.91228 0.975949 -5.93856 45.052 -1.5975 10.9724 33.0556 352.282 98.3216 -80.7395 -986.341 -102.747696 16.1681 365.459 -17.0892 41.8411 21.8578 0.0 56.0624 0.0 -28.2993 6.12901 -45.8009 0.0 0.0 0.0 0.0 0.0 0.0 111.9643 11.1713 -365.258 32.4669 45.7504 -373.803 0.0 55.0895 0.0 43.1952 12.6117 38.0008 0.0 0.0 0.0 0.0 0.0 0.0 -165.949 -76.2447 -153.735 0.0 140.899 0.0 -14.932 32.279 3.30912 0.0 -33.8376 0.0 156.007 -72.2953 152.149 0.0 142.395 0.0 70.8774 9.18211 -14.2833 0.0 71.483 0.0 
  -1.2555799865722657 5.9968499755859375 6.24260986328125 5.1356 44.6237 -7.58071 -2.24197 8.9506 0.931366 -5.93542 44.9603 -1.69771 10.8071 33.2842 352.429 98.5834 -80.7982 -986.101 -102.7231 16.1686 365.431 -17.0886 41.7375 21.9453 0.0 56.1073 0.0 -28.3053 6.21893 -45.8852 0.0 0.0 0.0 0.0 0.0 0.0 112.0017 11.208 -365.334 32.4203 45.7378 -373.798 0.0 55.165 0.0 43.1137 12.5818 37.7283 0.0 0.0 0.0 0.0 0.0 0.0 -165.924 -76.1592 -153.719 0.0 140.875 0.0 -14.8917 32.440002 3.30999 0.0 -33.881 0.0 156.23 -72.323 152.299 0.0 142.422 0.0 70.73 8.98826 -14.069 0.0 71.4611 0.0 
  -1.2554399871826172 5.993740234375 6.2421502685546875 5.19786 44.3866 -7.68421 -2.23645 9.22581 0.961524 -6.00419 44.8878 -1.75226 10.7753 33.4604 352.437 98.0905 -80.8625 -986.549 -102.686 16.1333 365.503 -17.0638 41.69 21.912 0.0 56.1797 0.0 -28.3331 6.27036 -45.9893 0.0 0.0 0.0 0.0 0.0 0.0 112.0002 11.2799 -365.456 32.3552 45.6583 -373.713 0.0 55.3217 0.0 43.0406 12.533 37.6452 0.0 0.0 0.0 0.0 0.0 0.0 -165.685 -76.3993 -153.453 0.0 140.904 0.0 -14.7632 32.4646 3.18084 0.0 -33.9959 0.0 155.996 -72.4566 152.124 0.0 142.497 0.0 70.8048 9.070681 -14.0188 0.0 71.2113 0.0 
